<?xml version="1.0" encoding="UTF-8"?>
<svg width="424px" height="285px" viewBox="0 0 424 285" version="1.1" xmlns="http://www.w3.org/2000/svg" xmlns:xlink="http://www.w3.org/1999/xlink">
    <title>6B885006-F1EA-475C-A1AA-3E74CBD7AD94</title>
    <g id="Page-1" stroke="none" stroke-width="1" fill="none" fill-rule="evenodd">
        <g id="OTP-1-Desktop" transform="translate(-176.000000, -252.000000)">
            <g id="Group-4" transform="translate(176.000000, 252.000000)">
                <g id="Group-10-Copy-6" transform="translate(172.000000, 0.000000)">
                    <path d="M187.97394,282 L15.0276248,282 C6.45315832,282 -0.5,269.140612 -0.5,253.279156 L-0.5,51.7237386 C-0.5,35.8593879 6.45315832,23 15.0276248,23 L187.97394,23 C196.549972,23 203.5,35.8593879 203.5,51.7237386 L203.5,253.279156 C203.5,269.140612 196.549972,282 187.97394,282" id="Fill-42" fill="#99BDF8"></path>
                    <polygon id="Fill-43" fill="#D3E4FF" points="156.5 282 163.5 282 163.5 23 156.5 23"></polygon>
                    <polygon id="Fill-44" fill="#D3E4FF" points="38.5 282 45.5 282 45.5 23 38.5 23"></polygon>
                    <path d="M136.5,23 L128.166939,23 L128.166939,10.316553 C128.166939,9.56667864 127.599928,8.95719928 126.902305,8.95719928 L82.0976951,8.95719928 C81.400072,8.95719928 80.8330612,9.56667864 80.8330612,10.316553 L80.8330612,23 L72.5,23 L72.5,10.316553 C72.5,4.62642729 76.8040576,0 82.0976951,0 L126.902305,0 C132.197479,0 136.5,4.62642729 136.5,10.316553 L136.5,23" id="Fill-45" fill="#2F425A"></path>
                    <polygon id="Fill-52" fill="#2F425A" points="151.5 23 165.5 23 165.5 18 151.5 18"></polygon>
                    <polygon id="Fill-53" fill="#2F425A" points="35.5 23 49.5 23 49.5 18 35.5 18"></polygon>
                </g>
                <path d="M407.6,187.375 C404.941378,187.375 402.437644,188.018438 400.216356,189.13675 C399.245111,173.993313 386.6244,162 371.155556,162 C355.052578,162 342,174.982938 342,191 C342,207.017063 355.052578,220 371.155556,220 L407.6,220 C416.658267,220 424,212.697437 424,203.6875 C424,194.677563 416.658267,187.375 407.6,187.375" id="Fill-9-Copy" fill="#D3E4FF"></path>
                <g id="Group-10-Copy-7" transform="translate(35.000000, 122.000000)">
                    <path d="M188.97394,160 L16.0276248,160 C7.45315832,160 0.5,153.09863 0.5,144.586111 L0.5,36.4154427 C0.5,27.9013704 7.45315832,21 16.0276248,21 L188.97394,21 C197.549972,21 204.5,27.9013704 204.5,36.4154427 L204.5,144.586111 C204.5,153.09863 197.549972,160 188.97394,160" id="Fill-42" fill="#FF7E99"></path>
                    <polygon id="Fill-43" fill="#D85E78" points="157.5 158 164.5 158 164.5 19 157.5 19"></polygon>
                    <polygon id="Fill-44" fill="#D85E78" points="39.5 158 46.5 158 46.5 19 39.5 19"></polygon>
                    <path d="M137.5,21 L129.166939,21 L129.166939,9.4194614 C129.166939,8.73479354 128.599928,8.17831239 127.902305,8.17831239 L83.0976951,8.17831239 C82.400072,8.17831239 81.8330612,8.73479354 81.8330612,9.4194614 L81.8330612,21 L73.5,21 L73.5,9.4194614 C73.5,4.22412926 77.8040576,0 83.0976951,0 L127.902305,0 C133.197479,0 137.5,4.22412926 137.5,9.4194614 L137.5,21" id="Fill-45" fill="#2F425A"></path>
                    <polygon id="Fill-52" fill="#2F425A" points="152.5 22 166.5 22 166.5 18 152.5 18"></polygon>
                    <polygon id="Fill-53" fill="#2F425A" points="36.5 22 50.5 22 50.5 18 36.5 18"></polygon>
                </g>
                <path d="M71.1959078,230.600326 C69.406181,230.600326 67.6590669,230.782273 65.9666254,231.12169 C62.4338045,222.814957 54.2940052,217 44.8123128,217 C32.0904594,217 21.7774204,227.464802 21.7774204,240.374873 C21.7774204,240.807302 21.7910886,241.235653 21.8136009,241.661555 C21.662447,241.658292 21.5112931,241.650133 21.3593351,241.650133 C9.56289739,241.650133 0,251.354511 0,263.324658 C0,275.295622 9.56289739,285 21.3593351,285 C21.4984289,285 21.6375227,284.991841 21.7774204,284.988577 L21.7774204,285 L71.1959078,285 C85.9993437,285 98,272.821797 98,257.800163 C98,242.777714 85.9993437,230.600326 71.1959078,230.600326" id="Fill-4-Copy-11" fill="#C6DBFF" transform="translate(49.000000, 251.000000) scale(-1, 1) translate(-49.000000, -251.000000) "></path>
            </g>
        </g>
    </g>
</svg>