<?xml version="1.0" encoding="UTF-8"?>
<svg width="1287px" height="482px" viewBox="0 0 1287 482" version="1.1" xmlns="http://www.w3.org/2000/svg" xmlns:xlink="http://www.w3.org/1999/xlink">
    <title>FB94F3D0-B306-400D-B00C-F61468E9BE2A</title>
    <g id="Page-1" stroke="none" stroke-width="1" fill="none" fill-rule="evenodd">
        <g id="OTP-2-Desktop" transform="translate(4.000000, -368.000000)">
            <g id="Group-5" transform="translate(-4.000000, 368.000000)">
                <g id="Group-3" fill="#E6EDFF">
                    <path d="M1287,73.506281 L1287,482 L0,482 L0,10.5102545 C16.0875,3.17615832 34.54308,0.986222927 51.68592,5.48961534 C84.11832,14.0100338 108.93168,45.711343 109.395,79.2423162 C123.47478,68.6683508 146.0745,65.9405817 161.82738,73.786778 C177.58026,81.6355476 188.182566,98.8282132 188.182566,116.430044 C206.53776,93.2156995 238.040946,82.9222312 267.15546,86.9881512 C282.72816,89.1240459 297.63162,95.3799013 309.42054,105.930706 C295.13484,81.0205129 301.26096,46.3057908 323.21718,27.800708 C345.14766,9.30077201 380.4372,9.11806294 402.54786,27.3915427 C417.09096,3.53642972 450.3213,-6.75703866 475.8039,4.66871124 C501.2865,16.0918878 515.67516,47.7726101 507.51558,74.4841605 C526.8978,72.0137281 547.07796,78.2670101 562.18734,90.5677048 L562.18734,90.5934385 C567.567,94.9681625 572.27742,100.089163 576.11268,105.850932 C590.733,127.930422 591.657066,158.350194 578.349486,181.253161 C601.59528,179.191894 625.58496,188.355654 641.5695,205.391345 C657.5283,222.398728 665.14734,246.925489 661.62096,269.982859 C684.24642,258.351239 712.3545,257.988395 735.260526,269.028139 C758.19744,280.093618 775.39176,302.301776 780.35958,327.263437 C786.82032,300.474685 814.05324,280.327794 841.5693,282.000483 C869.08536,283.673171 893.664486,306.985304 896.83308,334.340196 L898.8408,333.902724 C893.48688,308.96937 915.3144,284.728252 939.94758,278.011764 C964.58076,271.292702 990.65538,277.314381 1015.46874,283.364367 C1002.28986,263.469666 1004.70942,234.650528 1021.02858,217.228833 C1037.322,199.832872 1065.91657,195.507042 1086.63984,207.347104 C1074.61926,183.051945 1082.44422,150.678987 1104.22026,134.569709 C1126.02204,118.486164 1159.27812,120.495964 1178.96922,139.127142 C1182.80448,105.20759 1210.57794,75.4079993 1244.1429,69.1804509 C1258.50582,66.5324562 1273.40928,68.2566121 1287,73.506281" id="Fill-1"></path>
                </g>
                <path d="M254.974128,392.23237 C240.611304,360.077654 208.453141,337.665247 171.054572,337.665247 C163.728901,337.665247 156.612499,338.54967 149.782139,340.174423 C130.545441,318.094918 102.286625,304.128 70.7587477,304.128 C44.9232485,304.128 21.2844603,313.511324 3,329.042129 L3,481.128 L340.052715,481.128 C340.671855,477.181638 341,473.138386 341,469.018121 C341,426.314928 306.491579,391.696996 263.921948,391.696996 C260.893112,391.696996 257.911331,391.890774 254.974128,392.23237 Z" id="Fill-5-Copy-2" fill="#C6DBFF"></path>
            </g>
        </g>
    </g>
</svg>