<?xml version="1.0" encoding="UTF-8"?>
<svg width="99px" height="68px" viewBox="0 0 99 68" version="1.1" xmlns="http://www.w3.org/2000/svg" xmlns:xlink="http://www.w3.org/1999/xlink">
    <title>074BCCB1-A03A-49E8-BF08-26EB2D8105F3</title>
    <g id="Page-1" stroke="none" stroke-width="1" fill="none" fill-rule="evenodd">
        <g id="OTP-1" transform="translate(-248.000000, -47.000000)" fill="#E0EAFF">
            <path d="M319.922397,60.6003264 C318.114407,60.6003264 316.349465,60.7822733 314.639754,61.1216899 C311.070884,52.8149575 302.848026,47 293.269581,47 C280.417913,47 269.999639,57.4648021 269.999639,70.3748725 C269.999639,70.8073024 270.013447,71.2356527 270.036189,71.6615553 C269.883492,71.6582916 269.730796,71.6501326 269.577288,71.6501326 C257.660478,71.6501326 248,81.3545109 248,93.3246583 C248,105.295622 257.660478,115 269.577288,115 C269.717801,115 269.858314,114.991841 269.999639,114.988577 L269.999639,115 L319.922397,115 C334.876888,115 347,102.821797 347,87.8001632 C347,72.7777138 334.876888,60.6003264 319.922397,60.6003264" id="Fill-4-Copy-3"></path>
        </g>
    </g>
</svg>