<?xml version="1.0" encoding="UTF-8"?>
<svg width="58px" height="41px" viewBox="0 0 58 41" version="1.1" xmlns="http://www.w3.org/2000/svg" xmlns:xlink="http://www.w3.org/1999/xlink">
    <title>6C88D37C-0905-4194-A9B7-86B030657E8A</title>
    <g id="Page-1" stroke="none" stroke-width="1" fill="none" fill-rule="evenodd" opacity="0.7">
        <g id="OTP-1" transform="translate(-46.000000, -32.000000)" fill="#75A7F6">
            <g id="Group-34-Copy" transform="translate(46.000000, 32.500000)">
                <path d="M42.1363536,8.30018718 C41.0771276,8.30018718 40.0431212,8.40453907 39.0414722,8.59920449 C36.950619,3.83504913 32.1331868,0.5 26.5215729,0.5 C18.9923127,0.5 12.8886774,6.50187178 12.8886774,13.9061769 C12.8886774,14.1541881 12.8967667,14.3998596 12.9100903,14.6441273 C12.8206319,14.6422555 12.7311734,14.637576 12.6412392,14.637576 C5.65967397,14.637576 0,20.2033224 0,27.068554 C0,33.9342536 5.65967397,39.5 12.6412392,39.5 C12.72356,39.5 12.8058808,39.4953205 12.8886774,39.4934488 L12.8886774,39.5 L42.1363536,39.5 C50.8975707,39.5 58,32.5154422 58,23.9000936 C58,15.284277 50.8975707,8.30018718 42.1363536,8.30018718" id="Fill-4-Copy-6"></path>
            </g>
        </g>
    </g>
</svg>