<?xml version="1.0" encoding="UTF-8"?>
<svg width="475px" height="492px" viewBox="0 0 475 492" version="1.1" xmlns="http://www.w3.org/2000/svg" xmlns:xlink="http://www.w3.org/1999/xlink">
    <title>C21CA377-BD99-4478-BA65-21E1C81CF3BC</title>
    <g id="Page-1" stroke="none" stroke-width="1" fill="none" fill-rule="evenodd">
        <g id="01.01-Desktop" transform="translate(-433.000000, -134.000000)">
            <g id="Group-6" transform="translate(433.000000, 134.000000)">
                <g id="Group-5">
                    <g id="Group" transform="translate(23.000000, 0.000000)">
                        <path d="M76.2813297,23.4820774 C74.3637654,23.4820774 72.4918573,23.6731216 70.6785272,24.0295091 C66.893362,15.30744 58.1721484,9.20173468 48.0131923,9.20173468 C34.382635,9.20173468 23.3329505,20.1897769 23.3329505,33.7453508 C23.3329505,34.1994021 23.3475949,34.64917 23.3717152,35.0963677 C23.2097646,35.0929409 23.047814,35.0843739 22.8850019,35.0843739 C10.2459615,35.0843739 0,45.2739711 0,57.8426259 C0,70.4121375 10.2459615,80.6017347 22.8850019,80.6017347 C23.034031,80.6017347 23.18306,80.5931677 23.3329505,80.5897409 L23.3329505,80.6017347 L76.2813297,80.6017347 C92.1421539,80.6017347 105,67.8146212 105,52.041906 C105,36.2683342 92.1421539,23.4820774 76.2813297,23.4820774" id="Fill-4-Copy-7" fill="#75A7F6" opacity="0.7"></path>
                        <path d="M256.329411,118.542796 C250.448881,118.542796 244.708363,119.134659 239.147483,120.238761 C227.539643,93.2174493 200.794589,74.3017347 169.640456,74.3017347 C127.840081,74.3017347 93.9543814,108.34312 93.9543814,150.33882 C93.9543814,151.745489 93.9992912,153.138887 94.0732601,154.524323 C93.5766115,154.513707 93.0799629,154.487166 92.5806726,154.487166 C53.8209486,154.487166 22.4,186.054938 22.4,224.993123 C22.4,263.933963 53.8209486,295.501735 92.5806726,295.501735 C93.037695,295.501735 93.4947173,295.475194 93.9543814,295.464577 L93.9543814,295.501735 L256.329411,295.501735 C304.969272,295.501735 344.4,255.886756 344.4,207.022265 C344.4,158.155121 304.969272,118.542796 256.329411,118.542796" id="Fill-4-Copy-8" fill="#75A7F6"></path>
                        <g id="Group-Copy" transform="translate(9.503856, 0.000000)">
                            <path d="M144.825159,150.506434 C165.452619,126.010522 201.743454,121.48287 219.297144,150.179779 C223.243779,156.637909 227.377839,167.369329 228.234639,174.887749 C230.558709,195.215329 222.922479,213.914989 225.840954,234.055144 C219.886194,234.660259 212.983599,234.895879 205.224204,234.435349 L203.939004,221.015719 L199.301574,233.958754 C177.137229,231.709654 148.777149,223.709284 115.758219,203.301379 C123.041019,181.988479 133.825989,163.577989 144.825159,150.506434" id="Fill-67-Copy" fill="#2F425A" transform="translate(172.220005, 182.515863) rotate(-4.000000) translate(-172.220005, -182.515863) "></path>
                            <path d="M259.403217,288.855827 C259.403217,288.855827 309.643827,351.429002 321.290952,366.149897 C332.943432,380.876147 383.408952,426.645332 385.427787,428.364287 C387.446622,430.077887 420.845757,422.687987 420.508392,426.955922 C420.171027,431.229212 403.227807,429.852977 403.709757,434.720672 C404.191707,439.588367 437.553357,465.570827 434.918697,467.273717 C429.992097,470.459942 413.900322,452.151197 411.876132,454.068287 C409.857297,455.990732 430.425852,471.638042 428.219592,476.061272 C426.013332,480.484502 410.114337,459.439352 407.892012,460.081952 C405.664332,460.729907 420.219222,481.860737 415.303332,482.899607 C412.631187,483.467237 402.810117,463.798322 400.550307,466.052777 C398.290497,468.301877 403.484847,484.490042 400.341462,484.843472 C397.198077,485.196902 397.803192,470.706272 391.805592,464.098202 C385.807992,457.490132 384.854802,449.645057 372.275907,441.901727 C359.702367,434.158397 304.519092,408.481172 284.834112,385.294022 C265.149132,362.101517 228.938622,315.898577 228.938622,315.898577 L259.403217,288.855827" id="Fill-68-Copy" fill="#FED3C9" transform="translate(332.002757, 386.852825) rotate(-4.000000) translate(-332.002757, -386.852825) "></path>
                            <path d="M128.128785,238.255655 C128.128785,238.255655 92.2663498,166.466525 83.7518998,149.73215 C75.2428048,132.995633 54.7438648,68.0212763 54.0262948,65.4712253 C53.3087248,62.9217098 73.9790248,35.6626178 69.9574198,34.1862443 C65.9358148,32.7093353 60.1095748,48.6779453 55.8898348,46.2050063 C51.6700948,43.7326028 41.9936098,2.56764681 39.3482398,4.25018781 C34.3948648,7.39892781 44.3069698,29.6666243 41.7205048,30.7001393 C39.1286848,31.7341898 33.5005798,6.50999781 28.5632698,6.66636381 C23.6259598,6.82165881 36.1031098,30.0591458 34.5876448,31.8107663 C33.0721798,33.5623868 19.9577848,11.5121033 16.9536298,15.5465603 C15.3257098,17.7372908 29.0880598,34.8738263 26.0999698,35.9871308 C23.1118798,37.0998998 10.5758248,25.6193153 8.93719483,28.3268033 C7.30391983,31.0342913 20.7235498,36.5408378 24.2203648,44.7489818 C27.7225348,52.9565903 34.4484148,57.1040378 36.2316298,71.7633503 C38.0148448,86.4231983 38.2879498,147.29027 51.1345948,174.863165 C63.9812398,202.43606 90.8312098,254.631245 90.8312098,254.631245 L128.128785,238.255655" id="Fill-69-Copy" fill="#FED3C9" transform="translate(68.464392, 129.415623) rotate(-4.000000) translate(-68.464392, -129.415623) "></path>
                            <path d="M96.3524175,239.900356 C96.3524175,239.900356 121.274587,217.521811 136.150777,219.267541 C136.150777,219.267541 155.423422,249.796396 166.786732,250.894171 C178.150042,251.997301 218.125117,253.710901 225.134812,257.914576 C232.139152,262.118251 261.875467,307.266256 261.875467,307.266256 C261.875467,307.266256 235.154017,334.250101 224.406532,334.196551 C224.406532,334.196551 217.102312,315.973486 214.606882,319.293586 C212.106097,322.613686 214.971022,352.930366 209.985517,358.322851 C205.369507,363.313711 117.054847,410.49732 117.054847,326.439683 C117.054847,307.266256 117.054847,289.744696 117.054847,289.744696 C117.054847,289.744696 99.2066325,247.001086 96.3524175,239.900356 Z" id="Fill-70-Copy" fill="#FF7E99" transform="translate(179.113942, 297.589561) rotate(-4.000000) translate(-179.113942, -297.589561) "></path>
                            <path d="M184.886343,214.076895 C184.886343,214.076895 180.575568,236.35905 181.437723,245.15196 C182.299878,253.939515 178.155108,282.27282 159.546483,282.364048 C140.937858,282.460245 156.012183,246.346125 157.768623,237.72993 C159.519708,229.11909 159.932043,202.45119 159.932043,202.45119 L184.886343,214.076895" id="Fill-71-Copy" fill="#FED3C9" transform="translate(167.614734, 242.407619) rotate(-4.000000) translate(-167.614734, -242.407619) "></path>
                            <path d="M157.535882,215.582158 C157.830407,208.288648 157.921442,202.200013 157.921442,202.200013 L182.875742,213.825718 C182.875742,213.825718 181.992167,218.382823 181.108592,224.187643 C170.184392,226.383193 162.269702,222.340168 157.535882,215.582158" id="Fill-72-Copy" fill="#F7C3B7" transform="translate(170.205812, 213.493980) rotate(-4.000000) translate(-170.205812, -213.493980) "></path>
                            <path d="M191.577707,149.130226 C191.577707,149.130226 203.192702,152.921566 206.009432,165.023866 C208.820807,177.131521 203.599682,208.169101 179.534312,215.296606 C155.463587,222.429466 146.295827,197.646526 152.052452,178.470271 C157.803722,159.294016 166.853672,136.995796 191.577707,149.130226" id="Fill-73-Copy" fill="#FED3C9" transform="translate(178.542388, 181.115524) rotate(-4.000000) translate(-178.542388, -181.115524) "></path>
                            <path d="M191.24643,143.881214 C191.24643,143.881214 193.929285,176.910854 203.911005,182.962004 C213.89808,189.013154 208.87509,203.605529 208.87509,203.605529 C208.87509,203.605529 219.86355,169.719089 212.275515,158.725274 C204.68748,147.736814 191.24643,143.881214 191.24643,143.881214" id="Fill-74-Copy" fill="#2F425A" transform="translate(203.096650, 173.743371) rotate(-4.000000) translate(-203.096650, -173.743371) "></path>
                            <path d="M199.382142,188.251899 C196.383342,192.525189 196.147722,197.591019 198.851997,199.572369 C201.556272,201.553719 206.177637,199.700889 209.171082,195.427599 C212.169882,191.159664 212.410857,186.093834 209.706582,184.107129 C207.002307,182.125779 202.380942,183.983964 199.382142,188.251899" id="Fill-75-Copy" fill="#FED3C9" transform="translate(204.278086, 191.840181) rotate(-4.000000) translate(-204.278086, -191.840181) "></path>
                            <path d="M162.611614,193.86861 L179.945749,200.760495 C179.945749,200.760495 176.925529,207.19185 169.214329,204.380475 C159.816304,200.953275 162.611614,193.86861 162.611614,193.86861" id="Fill-76-Copy" fill="#FFFFFF" transform="translate(171.084238, 199.480127) rotate(-4.000000) translate(-171.084238, -199.480127) "></path>
                        </g>
                    </g>
                    <g id="Group-2-Copy-4" transform="translate(6.873573, 277.000000)">
                        <g id="Group-50" transform="translate(0.126427, 0.000000)">
                            <line x1="0.546266667" y1="0.397727273" x2="7.5516" y2="6.46990909" id="Fill-47" fill="#FFFFFF"></line>
                            <line x1="0.546266667" y1="0.397727273" x2="7.5516" y2="6.46990909" id="Stroke-49" stroke="#3B497C" stroke-width="3.062" stroke-linecap="round" stroke-linejoin="round"></line>
                        </g>
                        <g id="Group-54" transform="translate(0.126427, 0.000000)">
                            <line x1="6.89136" y1="0.0907454545" x2="0.21196" y2="6.77765455" id="Fill-51" fill="#FFFFFF"></line>
                            <line x1="6.89136" y1="0.0907454545" x2="0.21196" y2="6.77765455" id="Stroke-53" stroke="#3B497C" stroke-width="3.062" stroke-linecap="round" stroke-linejoin="round"></line>
                        </g>
                    </g>
                    <circle id="Oval-Copy-3" fill="#3B497C" cx="3.5" cy="312.5" r="3.5"></circle>
                </g>
                <g id="Group-2-Copy-6" transform="translate(351.873573, 115.000000)">
                    <g id="Group-50" transform="translate(0.126427, 0.000000)">
                        <line x1="2.54626667" y1="2.39772727" x2="9.5516" y2="8.46990909" id="Fill-47" fill="#FFFFFF"></line>
                        <line x1="0.5" y1="0.5" x2="11.5" y2="9.5" id="Stroke-49" stroke="#FF7E99" stroke-width="3" stroke-linecap="round" stroke-linejoin="round"></line>
                    </g>
                    <g id="Group-54" transform="translate(0.126427, 0.000000)">
                        <line x1="8.89136" y1="2.09074545" x2="2.21196" y2="8.77765455" id="Fill-51" fill="#FFFFFF"></line>
                        <line x1="10" y1="0" x2="0.5" y2="10.5" id="Stroke-53" stroke="#FF7E99" stroke-width="3" stroke-linecap="round" stroke-linejoin="round"></line>
                    </g>
                </g>
                <circle id="Oval-Copy-2" fill="#3B497C" cx="377.5" cy="139.5" r="2.5"></circle>
            </g>
        </g>
    </g>
</svg>